<?xml version="1.0" encoding="utf-8"?>
<!-- Generator: Adobe Illustrator 19.0.0, SVG Export Plug-In . SVG Version: 6.00 Build 0)  -->
<svg version="1.1" id="Layer_1" xmlns="http://www.w3.org/2000/svg" xmlns:xlink="http://www.w3.org/1999/xlink" x="0px" y="0px"
	 viewBox="0 0 960 560" style="enable-background:new 0 0 960 560;" xml:space="preserve">
<style type="text/css">
	.st0{fill:url(#XMLID_4_);stroke:#000000;stroke-miterlimit:10;}
	.st1{fill:#1925F9;}
	.st2{fill:#FFFFFF;}
	.st3{fill:#FCDE0B;}
</style>
<linearGradient id="XMLID_4_" gradientUnits="userSpaceOnUse" x1="406" y1="297" x2="790" y2="297">
	<stop  offset="0" style="stop-color:#FF0000"/>
	<stop  offset="1" style="stop-color:#FF0000"/>
</linearGradient>
<circle id="XMLID_2_" class="st0" cx="598" cy="297" r="192"/>
<g id="Layer_2">
	<g id="XMLID_1_">
		<path id="XMLID_24_" class="st1" d="M598,455c-87.1,0-158-70.9-158-158c0-87.1,70.9-158,158-158s158,70.9,158,158
			C756,384.1,685.1,455,598,455z"/>
		<path id="XMLID_18_" class="st2" d="M598,147c82.8,0,150,67.2,150,150s-67.2,150-150,150s-150-67.2-150-150S515.2,147,598,147
			 M598,131c-22.4,0-44.1,4.4-64.6,13.1c-19.8,8.4-37.5,20.3-52.8,35.6c-15.2,15.2-27.2,33-35.6,52.8c-8.7,20.5-13.1,42.2-13.1,64.6
			s4.4,44.1,13.1,64.6c8.4,19.8,20.3,37.5,35.6,52.8c15.2,15.2,33,27.2,52.8,35.6c20.5,8.7,42.2,13.1,64.6,13.1s44.1-4.4,64.6-13.1
			c19.8-8.4,37.5-20.3,52.8-35.6c15.2-15.2,27.2-33,35.6-52.8c8.7-20.5,13.1-42.2,13.1-64.6s-4.4-44.1-13.1-64.6
			c-8.4-19.8-20.3-37.5-35.6-52.8c-15.2-15.2-33-27.2-52.8-35.6C642.1,135.4,620.4,131,598,131L598,131z"/>
	</g>
	<g id="Layer_3">
		<path id="XMLID_23_" class="st3" d="M532.8,262.1l-1.3-0.2l-8.2,47.1l85.7,12.5l45.3,108.9l20.6-99.2l1.9,0.3l8.2-47.1l-80.8-11.8
			l-6.6-1l-1.4-3.4L549,155L532.8,262.1z M619,323.1l0.4,1l-2-1.3L619,323.1z"/>
	</g>
</g>
</svg>
