<?xml version="1.0" encoding="utf-8"?>
<!-- Generator: Adobe Illustrator 19.0.0, SVG Export Plug-In . SVG Version: 6.00 Build 0)  -->
<svg version="1.1" id="Layer_1" xmlns="http://www.w3.org/2000/svg" xmlns:xlink="http://www.w3.org/1999/xlink" x="0px" y="0px"
	 viewBox="0 0 960 560" style="enable-background:new 0 0 960 560;" xml:space="preserve">
<style type="text/css">
	.st0{fill:url(#XMLID_6_);}
	.st1{fill:url(#XMLID_7_);stroke:#000000;stroke-width:2.9167;stroke-miterlimit:10;}
	.st2{fill:url(#XMLID_8_);stroke:#000000;stroke-width:3.8889;stroke-miterlimit:10;}
	.st3{fill:none;}
</style>
<g id="XMLID_4_">
	<g id="XMLID_13_">
		
			<radialGradient id="XMLID_6_" cx="245" cy="280" r="261.1426" gradientTransform="matrix(1 0 0 -1 0 560)" gradientUnits="userSpaceOnUse">
			<stop  offset="0.5721" style="stop-color:#FFFFFF;stop-opacity:0"/>
			<stop  offset="0.5792" style="stop-color:#FDFDFD;stop-opacity:0.232"/>
			<stop  offset="0.5833" style="stop-color:#F7F4F8;stop-opacity:0.3675"/>
			<stop  offset="0.5867" style="stop-color:#EDE6EE;stop-opacity:0.4782"/>
			<stop  offset="0.5896" style="stop-color:#DFD2E0;stop-opacity:0.5755"/>
			<stop  offset="0.5923" style="stop-color:#CDB8CE;stop-opacity:0.664"/>
			<stop  offset="0.5948" style="stop-color:#B798B7;stop-opacity:0.7462"/>
			<stop  offset="0.5972" style="stop-color:#9C729D;stop-opacity:0.8235"/>
			<stop  offset="0.5994" style="stop-color:#7D467E;stop-opacity:0.8969"/>
			<stop  offset="0.6015" style="stop-color:#5B165C;stop-opacity:0.9647"/>
			<stop  offset="0.6022" style="stop-color:#4E0450;stop-opacity:0.9872"/>
			<stop  offset="0.8392" style="stop-color:#00047F"/>
			<stop  offset="0.8548" style="stop-color:#E91A00;stop-opacity:0.5"/>
			<stop  offset="0.8925" style="stop-color:#E92700"/>
			<stop  offset="0.9032" style="stop-color:#FFE9F0"/>
			<stop  offset="0.9086" style="stop-color:#E91A00;stop-opacity:0.5"/>
			<stop  offset="0.9086" style="stop-color:#FFF1F5;stop-opacity:0.6186"/>
			<stop  offset="0.9086" style="stop-color:#FBDDDE;stop-opacity:0.665"/>
			<stop  offset="0.9086" style="stop-color:#F1AAA4;stop-opacity:0.7623"/>
			<stop  offset="0.9086" style="stop-color:#E05A46;stop-opacity:0.9011"/>
			<stop  offset="0.9086" style="stop-color:#D41D00"/>
			<stop  offset="0.9096" style="stop-color:#DA1800"/>
			<stop  offset="0.9125" style="stop-color:#E51000"/>
			<stop  offset="0.9157" style="stop-color:#E90D00"/>
			<stop  offset="0.9946" style="stop-color:#462AFF"/>
			<stop  offset="1" style="stop-color:#D40500;stop-opacity:0.6436"/>
		</radialGradient>
		<path id="XMLID_28_" class="st0" d="M280,558.1c-82.1,0-159.4-35.8-212.3-98.4C25.3,409.5,1.9,345.7,1.9,280
			c0-65.7,23.3-129.5,65.7-179.7C120.6,37.7,197.9,1.9,280,1.9c79.7,0,155.2,33.8,208.1,93.7c-19.8-5.4-40.4-10.5-61.4-14.4
			C383.8,49.8,333.3,33.1,280,33.1S175.8,49.8,133,81.3C70.4,127.6,33.1,201.8,33.1,280c0,77.8,37.3,152.1,99.9,198.7
			c42.8,31.5,93.3,48.2,147,48.2c53.3,0,103.8-16.7,146.6-48.2c21-3.9,42-8.6,61.4-14.4C435.2,524.2,359.7,558.1,280,558.1z"/>
		<path id="XMLID_25_" d="M280,3.9c77,0,149.7,31.9,202.2,87.9c-17.5-4.7-36.2-8.9-54.8-12.4C384.6,47.8,333.7,31.1,280,31.1
			S175,47.8,131.8,79.7C68.8,126.4,31.1,201.4,31.1,280c0,78.6,37.7,153.2,100.7,200.3c43.2,31.9,94.5,48.6,148.2,48.6
			c53.3,0,104.2-16.7,147.4-48.2c18.7-3.5,36.9-7.8,54.8-12.4c-52.1,56-125.2,87.9-202.2,87.9c-81.3,0-158.3-35.8-210.8-98
			C27.2,408.7,3.9,345.3,3.9,280s23.3-128.7,65.3-178.1C121.7,39.7,198.7,3.9,280,3.9 M280,0C194.4,0,117.4,38.5,66.1,99.2
			C24.9,147.8,0,211.2,0,280s24.9,132.2,66.1,180.8C117.4,521.5,194.1,560,280,560s162.6-38.5,213.9-99.2
			c-21.4,6.2-44.3,11.7-68.1,16.3C385,507.1,334.4,525,280,525s-105-17.9-145.8-47.8C73.9,432.4,35,360.9,35,280
			s38.9-152.4,99.2-197.2C175,52.9,225.6,35,280,35s105,17.9,145.8,47.8c23.7,4.3,46.7,9.7,68.1,16.3C442.6,38.5,365.6,0,280,0
			L280,0z"/>
	</g>
	
		<radialGradient id="XMLID_7_" cx="304.8889" cy="280" r="197.9471" gradientTransform="matrix(1 0 0 -1 0 560)" gradientUnits="userSpaceOnUse">
		<stop  offset="0.5721" style="stop-color:#FFFFFF;stop-opacity:0"/>
		<stop  offset="0.6523" style="stop-color:#FEFDFD;stop-opacity:0.2345"/>
		<stop  offset="0.6991" style="stop-color:#F9F4F7;stop-opacity:0.3714"/>
		<stop  offset="0.7373" style="stop-color:#F0E6ED;stop-opacity:0.4832"/>
		<stop  offset="0.7709" style="stop-color:#E5D2DF;stop-opacity:0.5815"/>
		<stop  offset="0.8015" style="stop-color:#D6B8CC;stop-opacity:0.671"/>
		<stop  offset="0.8299" style="stop-color:#C398B5;stop-opacity:0.754"/>
		<stop  offset="0.8566" style="stop-color:#AD729A;stop-opacity:0.8321"/>
		<stop  offset="0.8819" style="stop-color:#93467B;stop-opacity:0.9062"/>
		<stop  offset="0.9054" style="stop-color:#771658;stop-opacity:0.9748"/>
		<stop  offset="0.914" style="stop-color:#6B024A"/>
		<stop  offset="0.9194" style="stop-color:#FFFFFD;stop-opacity:0.2673"/>
		<stop  offset="0.9213" style="stop-color:#FEFDF5;stop-opacity:0.343"/>
		<stop  offset="0.9243" style="stop-color:#FDF9DE;stop-opacity:0.4631"/>
		<stop  offset="0.9281" style="stop-color:#FAF3B8;stop-opacity:0.6125"/>
		<stop  offset="0.9325" style="stop-color:#F6E984;stop-opacity:0.7855"/>
		<stop  offset="0.9373" style="stop-color:#F2DE43;stop-opacity:0.9762"/>
		<stop  offset="0.9379" style="stop-color:#F1DC3A"/>
		<stop  offset="0.9409" style="stop-color:#DBC01F"/>
		<stop  offset="0.9409" style="stop-color:#DCB91E"/>
		<stop  offset="0.9409" style="stop-color:#E58816"/>
		<stop  offset="0.941" style="stop-color:#ED5F0F"/>
		<stop  offset="0.9411" style="stop-color:#F43C0A"/>
		<stop  offset="0.9411" style="stop-color:#F92205"/>
		<stop  offset="0.9412" style="stop-color:#FC0F02"/>
		<stop  offset="0.9413" style="stop-color:#FE0401"/>
		<stop  offset="0.9413" style="stop-color:#FF0000"/>
		<stop  offset="0.9677" style="stop-color:#E6CE2D"/>
		<stop  offset="0.9694" style="stop-color:#F5E13F"/>
		<stop  offset="1" style="stop-color:#FFFFFF;stop-opacity:0.5"/>
		<stop  offset="1" style="stop-color:#FF0000"/>
		<stop  offset="1" style="stop-color:#E4CF56;stop-opacity:0.6436"/>
	</radialGradient>
	<path id="XMLID_3_" class="st1" d="M440.2,144.3C401.7,98.8,344.2,70,280,70s-121.7,28.8-160.2,74.3c16.3-4.7,33.1-8.9,50.9-12.1
		c30.7-22.6,68.4-36.2,109.3-36.2s78.6,13.2,109.3,36.2c45.1,33.4,74.7,87.1,74.7,147.8s-29.2,114.3-74.7,147.8
		c-30.7,22.6-68.4,36.2-109.3,36.2s-78.6-13.2-109.3-36.2c-17.9-3.5-35-7.4-50.9-12.1C158.3,461.2,215.8,490,280,490
		s121.7-28.8,160.2-74.3c31.1-36.6,49.8-84,49.8-135.7S471.3,180.8,440.2,144.3z"/>
	
		<linearGradient id="XMLID_8_" gradientUnits="userSpaceOnUse" x1="-251.9171" y1="118.4189" x2="246.0536" y2="118.4189" gradientTransform="matrix(0.5546 -0.8321 -0.8321 -0.5546 377.3583 339.8755)">
		<stop  offset="0.1667" style="stop-color:#FF652A"/>
		<stop  offset="0.1913" style="stop-color:#FF6E29"/>
		<stop  offset="0.2323" style="stop-color:#FF8825"/>
		<stop  offset="0.2842" style="stop-color:#FFB11E"/>
		<stop  offset="0.328" style="stop-color:#FFD918"/>
		<stop  offset="0.4731" style="stop-color:#FF6929"/>
		<stop  offset="0.5016" style="stop-color:#FF7427"/>
		<stop  offset="0.5511" style="stop-color:#FF9023"/>
		<stop  offset="0.6151" style="stop-color:#FFBE1C"/>
		<stop  offset="0.672" style="stop-color:#FFEC15"/>
		<stop  offset="0.8652" style="stop-color:#FF0000"/>
		<stop  offset="0.9944" style="stop-color:#FF152F"/>
	</linearGradient>
	<path id="XMLID_1_" class="st2" d="M484.9,115.9L341.4,218.2l35,23.3L294,289.3l35,23.3L69.6,437.5l129.1-118.2l-35-23.3
		l120.6-67.7c0,0-46.7-28.4-35.4-22.2C260.2,212.3,484.9,115.9,484.9,115.9z"/>
	<rect id="XMLID_2_" class="st3" width="560" height="560"/>
</g>
</svg>
